# xmcd CD Database Entry
#
# Track frame offsets:
# 150
# 62700
# 105638
# 135178
# 199290
# 232148
#
# Disc length: 3482 seconds
#
# Revision: 8
# Processed by: cddbd v1.4PL0 Copyright (c) Steve Scherf et al.
# Submitted via: tcd 2.0b
#
DISCID=500d9806
DTITLE=Mozart - Piano Concerto No.20 No.21 - Geza Anda(Pf.&Cond.) - 
DTITLE=Wiener Symphoniker
DYEAR=1900
DGENRE=
TTITLE0=I:Allegro
TTITLE1=II:Romance
TTITLE2=III:Rondo(Allegro assai)
TTITLE3=I:(Allegro Maestoso)
TTITLE4=II:Andante
TTITLE5=III:Allegro vivace assai
EXTD=
EXTT0=
EXTT1=
EXTT2=
EXTT3=
EXTT4=
EXTT5=
PLAYORDER=
